<svg xmlns="http://www.w3.org/2000/svg" xmlns:xlink="http://www.w3.org/1999/xlink" width="25" height="25" version="1.1" viewBox="0 0 25 25"><path d="m21.25,5.983346l-4.75,0l0,4.433327l3.75,0l0,6.649989l-15.5,0l0,-6.649989l5.25,0l0,3.483328l5,-5.699991l-5,-5.699991l0,3.483328l-6.25,0c-1.38,0 -2.5,1.417399 -2.5,3.166662l0,9.183316c0,1.747997 1.12,3.166662 2.5,3.166662l17.5,0c1.381001,0 2.5,-1.418665 2.5,-3.166662l0,-9.183316c0,-1.749263 -1.118999,-3.166662 -2.5,-3.166662z"/><rect width="2" height="5.5" x="16.187" y="11"/><rect width="2.821" height="1.21" x="14.034" y="11.799" transform="rotate(-39.3058 15.4442 12.4041)"/></svg>